<mxfile host="app.diagrams.net" agent="Mozilla/5.0 (Macintosh; Intel Mac OS X 10_15_7) AppleWebKit/605.1.15 (KHTML, like Gecko) Version/18.3.1 Safari/605.1.15" version="26.2.13">
  <diagram name="Page-1" id="g3WDZeYcNOJ_LntQMps0">
    <mxGraphModel dx="1218" dy="821" grid="1" gridSize="10" guides="1" tooltips="1" connect="1" arrows="1" fold="1" page="1" pageScale="1" pageWidth="850" pageHeight="1100" math="0" shadow="0">
      <root>
        <mxCell id="0" />
        <mxCell id="1" parent="0" />
        <mxCell id="DbBFbB_svKLP9gITF9bb-1" value="AirQuality_Fact" style="shape=table;startSize=25;container=1;collapsible=0;childLayout=tableLayout;fixedRows=1;rowLines=1;fontStyle=1;align=center;resizeLast=1;fillColor=#a0522d;fontColor=#ffffff;strokeColor=#6D1F00;" parent="1" vertex="1">
          <mxGeometry x="338" y="170" width="136" height="113" as="geometry" />
        </mxCell>
        <mxCell id="DbBFbB_svKLP9gITF9bb-2" style="shape=tableRow;horizontal=0;startSize=0;swimlaneHead=0;swimlaneBody=0;fillColor=none;collapsible=0;dropTarget=0;points=[[0,0.5],[1,0.5]];portConstraint=eastwest;top=0;left=0;right=0;bottom=0;" parent="DbBFbB_svKLP9gITF9bb-1" vertex="1">
          <mxGeometry y="25" width="136" height="22" as="geometry" />
        </mxCell>
        <mxCell id="DbBFbB_svKLP9gITF9bb-3" value="int" style="shape=partialRectangle;connectable=0;fillColor=none;top=0;left=0;bottom=0;right=0;align=left;spacingLeft=2;overflow=hidden;fontSize=11;" parent="DbBFbB_svKLP9gITF9bb-2" vertex="1">
          <mxGeometry width="30" height="22" as="geometry">
            <mxRectangle width="30" height="22" as="alternateBounds" />
          </mxGeometry>
        </mxCell>
        <mxCell id="DbBFbB_svKLP9gITF9bb-4" value="Time_Key" style="shape=partialRectangle;connectable=0;fillColor=none;top=0;left=0;bottom=0;right=0;align=left;spacingLeft=2;overflow=hidden;fontSize=11;" parent="DbBFbB_svKLP9gITF9bb-2" vertex="1">
          <mxGeometry x="30" width="86" height="22" as="geometry">
            <mxRectangle width="86" height="22" as="alternateBounds" />
          </mxGeometry>
        </mxCell>
        <mxCell id="DbBFbB_svKLP9gITF9bb-5" value="FK" style="shape=partialRectangle;connectable=0;fillColor=none;top=0;left=0;bottom=0;right=0;align=left;spacingLeft=2;overflow=hidden;fontSize=11;" parent="DbBFbB_svKLP9gITF9bb-2" vertex="1">
          <mxGeometry x="116" width="20" height="22" as="geometry">
            <mxRectangle width="20" height="22" as="alternateBounds" />
          </mxGeometry>
        </mxCell>
        <mxCell id="DbBFbB_svKLP9gITF9bb-6" style="shape=tableRow;horizontal=0;startSize=0;swimlaneHead=0;swimlaneBody=0;fillColor=none;collapsible=0;dropTarget=0;points=[[0,0.5],[1,0.5]];portConstraint=eastwest;top=0;left=0;right=0;bottom=0;" parent="DbBFbB_svKLP9gITF9bb-1" vertex="1">
          <mxGeometry y="47" width="136" height="22" as="geometry" />
        </mxCell>
        <mxCell id="DbBFbB_svKLP9gITF9bb-7" value="int" style="shape=partialRectangle;connectable=0;fillColor=none;top=0;left=0;bottom=0;right=0;align=left;spacingLeft=2;overflow=hidden;fontSize=11;" parent="DbBFbB_svKLP9gITF9bb-6" vertex="1">
          <mxGeometry width="30" height="22" as="geometry">
            <mxRectangle width="30" height="22" as="alternateBounds" />
          </mxGeometry>
        </mxCell>
        <mxCell id="DbBFbB_svKLP9gITF9bb-8" value="Location_Key" style="shape=partialRectangle;connectable=0;fillColor=none;top=0;left=0;bottom=0;right=0;align=left;spacingLeft=2;overflow=hidden;fontSize=11;" parent="DbBFbB_svKLP9gITF9bb-6" vertex="1">
          <mxGeometry x="30" width="86" height="22" as="geometry">
            <mxRectangle width="86" height="22" as="alternateBounds" />
          </mxGeometry>
        </mxCell>
        <mxCell id="DbBFbB_svKLP9gITF9bb-9" value="FK" style="shape=partialRectangle;connectable=0;fillColor=none;top=0;left=0;bottom=0;right=0;align=left;spacingLeft=2;overflow=hidden;fontSize=11;" parent="DbBFbB_svKLP9gITF9bb-6" vertex="1">
          <mxGeometry x="116" width="20" height="22" as="geometry">
            <mxRectangle width="20" height="22" as="alternateBounds" />
          </mxGeometry>
        </mxCell>
        <mxCell id="DbBFbB_svKLP9gITF9bb-10" style="shape=tableRow;horizontal=0;startSize=0;swimlaneHead=0;swimlaneBody=0;fillColor=none;collapsible=0;dropTarget=0;points=[[0,0.5],[1,0.5]];portConstraint=eastwest;top=0;left=0;right=0;bottom=0;" parent="DbBFbB_svKLP9gITF9bb-1" vertex="1">
          <mxGeometry y="69" width="136" height="22" as="geometry" />
        </mxCell>
        <mxCell id="DbBFbB_svKLP9gITF9bb-11" value="int" style="shape=partialRectangle;connectable=0;fillColor=none;top=0;left=0;bottom=0;right=0;align=left;spacingLeft=2;overflow=hidden;fontSize=11;" parent="DbBFbB_svKLP9gITF9bb-10" vertex="1">
          <mxGeometry width="30" height="22" as="geometry">
            <mxRectangle width="30" height="22" as="alternateBounds" />
          </mxGeometry>
        </mxCell>
        <mxCell id="DbBFbB_svKLP9gITF9bb-12" value="Indicator_Key" style="shape=partialRectangle;connectable=0;fillColor=none;top=0;left=0;bottom=0;right=0;align=left;spacingLeft=2;overflow=hidden;fontSize=11;" parent="DbBFbB_svKLP9gITF9bb-10" vertex="1">
          <mxGeometry x="30" width="86" height="22" as="geometry">
            <mxRectangle width="86" height="22" as="alternateBounds" />
          </mxGeometry>
        </mxCell>
        <mxCell id="DbBFbB_svKLP9gITF9bb-13" value="FK" style="shape=partialRectangle;connectable=0;fillColor=none;top=0;left=0;bottom=0;right=0;align=left;spacingLeft=2;overflow=hidden;fontSize=11;" parent="DbBFbB_svKLP9gITF9bb-10" vertex="1">
          <mxGeometry x="116" width="20" height="22" as="geometry">
            <mxRectangle width="20" height="22" as="alternateBounds" />
          </mxGeometry>
        </mxCell>
        <mxCell id="DbBFbB_svKLP9gITF9bb-14" style="shape=tableRow;horizontal=0;startSize=0;swimlaneHead=0;swimlaneBody=0;fillColor=none;collapsible=0;dropTarget=0;points=[[0,0.5],[1,0.5]];portConstraint=eastwest;top=0;left=0;right=0;bottom=0;" parent="DbBFbB_svKLP9gITF9bb-1" vertex="1">
          <mxGeometry y="91" width="136" height="22" as="geometry" />
        </mxCell>
        <mxCell id="DbBFbB_svKLP9gITF9bb-15" value="float" style="shape=partialRectangle;connectable=0;fillColor=none;top=0;left=0;bottom=0;right=0;align=left;spacingLeft=2;overflow=hidden;fontSize=11;" parent="DbBFbB_svKLP9gITF9bb-14" vertex="1">
          <mxGeometry width="30" height="22" as="geometry">
            <mxRectangle width="30" height="22" as="alternateBounds" />
          </mxGeometry>
        </mxCell>
        <mxCell id="DbBFbB_svKLP9gITF9bb-16" value="Data_Value" style="shape=partialRectangle;connectable=0;fillColor=none;top=0;left=0;bottom=0;right=0;align=left;spacingLeft=2;overflow=hidden;fontSize=11;" parent="DbBFbB_svKLP9gITF9bb-14" vertex="1">
          <mxGeometry x="30" width="86" height="22" as="geometry">
            <mxRectangle width="86" height="22" as="alternateBounds" />
          </mxGeometry>
        </mxCell>
        <mxCell id="DbBFbB_svKLP9gITF9bb-17" value="" style="shape=partialRectangle;connectable=0;fillColor=none;top=0;left=0;bottom=0;right=0;align=left;spacingLeft=2;overflow=hidden;fontSize=11;" parent="DbBFbB_svKLP9gITF9bb-14" vertex="1">
          <mxGeometry x="116" width="20" height="22" as="geometry">
            <mxRectangle width="20" height="22" as="alternateBounds" />
          </mxGeometry>
        </mxCell>
        <mxCell id="DbBFbB_svKLP9gITF9bb-18" value="Time_Dimension" style="shape=table;startSize=25;container=1;collapsible=0;childLayout=tableLayout;fixedRows=1;rowLines=1;fontStyle=1;align=center;resizeLast=1;fillColor=#a0522d;strokeColor=#6D1F00;fontColor=#ffffff;" parent="1" vertex="1">
          <mxGeometry x="100" y="404" width="135" height="91" as="geometry" />
        </mxCell>
        <mxCell id="DbBFbB_svKLP9gITF9bb-19" style="shape=tableRow;horizontal=0;startSize=0;swimlaneHead=0;swimlaneBody=0;fillColor=none;collapsible=0;dropTarget=0;points=[[0,0.5],[1,0.5]];portConstraint=eastwest;top=0;left=0;right=0;bottom=0;" parent="DbBFbB_svKLP9gITF9bb-18" vertex="1">
          <mxGeometry y="25" width="135" height="22" as="geometry" />
        </mxCell>
        <mxCell id="DbBFbB_svKLP9gITF9bb-20" value="int" style="shape=partialRectangle;connectable=0;fillColor=none;top=0;left=0;bottom=0;right=0;align=left;spacingLeft=2;overflow=hidden;fontSize=11;" parent="DbBFbB_svKLP9gITF9bb-19" vertex="1">
          <mxGeometry width="36" height="22" as="geometry">
            <mxRectangle width="36" height="22" as="alternateBounds" />
          </mxGeometry>
        </mxCell>
        <mxCell id="DbBFbB_svKLP9gITF9bb-21" value="Time_Key" style="shape=partialRectangle;connectable=0;fillColor=none;top=0;left=0;bottom=0;right=0;align=left;spacingLeft=2;overflow=hidden;fontSize=11;" parent="DbBFbB_svKLP9gITF9bb-19" vertex="1">
          <mxGeometry x="36" width="79" height="22" as="geometry">
            <mxRectangle width="79" height="22" as="alternateBounds" />
          </mxGeometry>
        </mxCell>
        <mxCell id="DbBFbB_svKLP9gITF9bb-22" value="PK" style="shape=partialRectangle;connectable=0;fillColor=none;top=0;left=0;bottom=0;right=0;align=left;spacingLeft=2;overflow=hidden;fontSize=11;" parent="DbBFbB_svKLP9gITF9bb-19" vertex="1">
          <mxGeometry x="115" width="20" height="22" as="geometry">
            <mxRectangle width="20" height="22" as="alternateBounds" />
          </mxGeometry>
        </mxCell>
        <mxCell id="DbBFbB_svKLP9gITF9bb-23" style="shape=tableRow;horizontal=0;startSize=0;swimlaneHead=0;swimlaneBody=0;fillColor=none;collapsible=0;dropTarget=0;points=[[0,0.5],[1,0.5]];portConstraint=eastwest;top=0;left=0;right=0;bottom=0;" parent="DbBFbB_svKLP9gITF9bb-18" vertex="1">
          <mxGeometry y="47" width="135" height="22" as="geometry" />
        </mxCell>
        <mxCell id="DbBFbB_svKLP9gITF9bb-24" value="string" style="shape=partialRectangle;connectable=0;fillColor=none;top=0;left=0;bottom=0;right=0;align=left;spacingLeft=2;overflow=hidden;fontSize=11;" parent="DbBFbB_svKLP9gITF9bb-23" vertex="1">
          <mxGeometry width="36" height="22" as="geometry">
            <mxRectangle width="36" height="22" as="alternateBounds" />
          </mxGeometry>
        </mxCell>
        <mxCell id="DbBFbB_svKLP9gITF9bb-25" value="Time_Period" style="shape=partialRectangle;connectable=0;fillColor=none;top=0;left=0;bottom=0;right=0;align=left;spacingLeft=2;overflow=hidden;fontSize=11;" parent="DbBFbB_svKLP9gITF9bb-23" vertex="1">
          <mxGeometry x="36" width="79" height="22" as="geometry">
            <mxRectangle width="79" height="22" as="alternateBounds" />
          </mxGeometry>
        </mxCell>
        <mxCell id="DbBFbB_svKLP9gITF9bb-26" value="" style="shape=partialRectangle;connectable=0;fillColor=none;top=0;left=0;bottom=0;right=0;align=left;spacingLeft=2;overflow=hidden;fontSize=11;" parent="DbBFbB_svKLP9gITF9bb-23" vertex="1">
          <mxGeometry x="115" width="20" height="22" as="geometry">
            <mxRectangle width="20" height="22" as="alternateBounds" />
          </mxGeometry>
        </mxCell>
        <mxCell id="DbBFbB_svKLP9gITF9bb-27" style="shape=tableRow;horizontal=0;startSize=0;swimlaneHead=0;swimlaneBody=0;fillColor=none;collapsible=0;dropTarget=0;points=[[0,0.5],[1,0.5]];portConstraint=eastwest;top=0;left=0;right=0;bottom=0;" parent="DbBFbB_svKLP9gITF9bb-18" vertex="1">
          <mxGeometry y="69" width="135" height="22" as="geometry" />
        </mxCell>
        <mxCell id="DbBFbB_svKLP9gITF9bb-28" value="date" style="shape=partialRectangle;connectable=0;fillColor=none;top=0;left=0;bottom=0;right=0;align=left;spacingLeft=2;overflow=hidden;fontSize=11;" parent="DbBFbB_svKLP9gITF9bb-27" vertex="1">
          <mxGeometry width="36" height="22" as="geometry">
            <mxRectangle width="36" height="22" as="alternateBounds" />
          </mxGeometry>
        </mxCell>
        <mxCell id="DbBFbB_svKLP9gITF9bb-29" value="Start_Date" style="shape=partialRectangle;connectable=0;fillColor=none;top=0;left=0;bottom=0;right=0;align=left;spacingLeft=2;overflow=hidden;fontSize=11;" parent="DbBFbB_svKLP9gITF9bb-27" vertex="1">
          <mxGeometry x="36" width="79" height="22" as="geometry">
            <mxRectangle width="79" height="22" as="alternateBounds" />
          </mxGeometry>
        </mxCell>
        <mxCell id="DbBFbB_svKLP9gITF9bb-30" value="" style="shape=partialRectangle;connectable=0;fillColor=none;top=0;left=0;bottom=0;right=0;align=left;spacingLeft=2;overflow=hidden;fontSize=11;" parent="DbBFbB_svKLP9gITF9bb-27" vertex="1">
          <mxGeometry x="115" width="20" height="22" as="geometry">
            <mxRectangle width="20" height="22" as="alternateBounds" />
          </mxGeometry>
        </mxCell>
        <mxCell id="DbBFbB_svKLP9gITF9bb-31" value="Location_Dimension" style="shape=table;startSize=25;container=1;collapsible=0;childLayout=tableLayout;fixedRows=1;rowLines=1;fontStyle=1;align=center;resizeLast=1;fillColor=#a0522d;strokeColor=#6D1F00;fontColor=#ffffff;" parent="1" vertex="1">
          <mxGeometry x="327" y="393" width="157" height="113" as="geometry" />
        </mxCell>
        <mxCell id="DbBFbB_svKLP9gITF9bb-32" style="shape=tableRow;horizontal=0;startSize=0;swimlaneHead=0;swimlaneBody=0;fillColor=none;collapsible=0;dropTarget=0;points=[[0,0.5],[1,0.5]];portConstraint=eastwest;top=0;left=0;right=0;bottom=0;" parent="DbBFbB_svKLP9gITF9bb-31" vertex="1">
          <mxGeometry y="25" width="157" height="22" as="geometry" />
        </mxCell>
        <mxCell id="DbBFbB_svKLP9gITF9bb-33" value="int" style="shape=partialRectangle;connectable=0;fillColor=none;top=0;left=0;bottom=0;right=0;align=left;spacingLeft=2;overflow=hidden;fontSize=11;" parent="DbBFbB_svKLP9gITF9bb-32" vertex="1">
          <mxGeometry width="36" height="22" as="geometry">
            <mxRectangle width="36" height="22" as="alternateBounds" />
          </mxGeometry>
        </mxCell>
        <mxCell id="DbBFbB_svKLP9gITF9bb-34" value="Location_Key" style="shape=partialRectangle;connectable=0;fillColor=none;top=0;left=0;bottom=0;right=0;align=left;spacingLeft=2;overflow=hidden;fontSize=11;" parent="DbBFbB_svKLP9gITF9bb-32" vertex="1">
          <mxGeometry x="36" width="101" height="22" as="geometry">
            <mxRectangle width="101" height="22" as="alternateBounds" />
          </mxGeometry>
        </mxCell>
        <mxCell id="DbBFbB_svKLP9gITF9bb-35" value="PK" style="shape=partialRectangle;connectable=0;fillColor=none;top=0;left=0;bottom=0;right=0;align=left;spacingLeft=2;overflow=hidden;fontSize=11;" parent="DbBFbB_svKLP9gITF9bb-32" vertex="1">
          <mxGeometry x="137" width="20" height="22" as="geometry">
            <mxRectangle width="20" height="22" as="alternateBounds" />
          </mxGeometry>
        </mxCell>
        <mxCell id="DbBFbB_svKLP9gITF9bb-36" style="shape=tableRow;horizontal=0;startSize=0;swimlaneHead=0;swimlaneBody=0;fillColor=none;collapsible=0;dropTarget=0;points=[[0,0.5],[1,0.5]];portConstraint=eastwest;top=0;left=0;right=0;bottom=0;" parent="DbBFbB_svKLP9gITF9bb-31" vertex="1">
          <mxGeometry y="47" width="157" height="22" as="geometry" />
        </mxCell>
        <mxCell id="DbBFbB_svKLP9gITF9bb-37" value="string" style="shape=partialRectangle;connectable=0;fillColor=none;top=0;left=0;bottom=0;right=0;align=left;spacingLeft=2;overflow=hidden;fontSize=11;" parent="DbBFbB_svKLP9gITF9bb-36" vertex="1">
          <mxGeometry width="36" height="22" as="geometry">
            <mxRectangle width="36" height="22" as="alternateBounds" />
          </mxGeometry>
        </mxCell>
        <mxCell id="DbBFbB_svKLP9gITF9bb-38" value="Geo_Type_Name" style="shape=partialRectangle;connectable=0;fillColor=none;top=0;left=0;bottom=0;right=0;align=left;spacingLeft=2;overflow=hidden;fontSize=11;" parent="DbBFbB_svKLP9gITF9bb-36" vertex="1">
          <mxGeometry x="36" width="101" height="22" as="geometry">
            <mxRectangle width="101" height="22" as="alternateBounds" />
          </mxGeometry>
        </mxCell>
        <mxCell id="DbBFbB_svKLP9gITF9bb-39" value="" style="shape=partialRectangle;connectable=0;fillColor=none;top=0;left=0;bottom=0;right=0;align=left;spacingLeft=2;overflow=hidden;fontSize=11;" parent="DbBFbB_svKLP9gITF9bb-36" vertex="1">
          <mxGeometry x="137" width="20" height="22" as="geometry">
            <mxRectangle width="20" height="22" as="alternateBounds" />
          </mxGeometry>
        </mxCell>
        <mxCell id="DbBFbB_svKLP9gITF9bb-40" style="shape=tableRow;horizontal=0;startSize=0;swimlaneHead=0;swimlaneBody=0;fillColor=none;collapsible=0;dropTarget=0;points=[[0,0.5],[1,0.5]];portConstraint=eastwest;top=0;left=0;right=0;bottom=0;" parent="DbBFbB_svKLP9gITF9bb-31" vertex="1">
          <mxGeometry y="69" width="157" height="22" as="geometry" />
        </mxCell>
        <mxCell id="DbBFbB_svKLP9gITF9bb-41" value="int" style="shape=partialRectangle;connectable=0;fillColor=none;top=0;left=0;bottom=0;right=0;align=left;spacingLeft=2;overflow=hidden;fontSize=11;" parent="DbBFbB_svKLP9gITF9bb-40" vertex="1">
          <mxGeometry width="36" height="22" as="geometry">
            <mxRectangle width="36" height="22" as="alternateBounds" />
          </mxGeometry>
        </mxCell>
        <mxCell id="DbBFbB_svKLP9gITF9bb-42" value="Geo_Join_ID" style="shape=partialRectangle;connectable=0;fillColor=none;top=0;left=0;bottom=0;right=0;align=left;spacingLeft=2;overflow=hidden;fontSize=11;" parent="DbBFbB_svKLP9gITF9bb-40" vertex="1">
          <mxGeometry x="36" width="101" height="22" as="geometry">
            <mxRectangle width="101" height="22" as="alternateBounds" />
          </mxGeometry>
        </mxCell>
        <mxCell id="DbBFbB_svKLP9gITF9bb-43" value="" style="shape=partialRectangle;connectable=0;fillColor=none;top=0;left=0;bottom=0;right=0;align=left;spacingLeft=2;overflow=hidden;fontSize=11;" parent="DbBFbB_svKLP9gITF9bb-40" vertex="1">
          <mxGeometry x="137" width="20" height="22" as="geometry">
            <mxRectangle width="20" height="22" as="alternateBounds" />
          </mxGeometry>
        </mxCell>
        <mxCell id="DbBFbB_svKLP9gITF9bb-44" style="shape=tableRow;horizontal=0;startSize=0;swimlaneHead=0;swimlaneBody=0;fillColor=none;collapsible=0;dropTarget=0;points=[[0,0.5],[1,0.5]];portConstraint=eastwest;top=0;left=0;right=0;bottom=0;" parent="DbBFbB_svKLP9gITF9bb-31" vertex="1">
          <mxGeometry y="91" width="157" height="22" as="geometry" />
        </mxCell>
        <mxCell id="DbBFbB_svKLP9gITF9bb-45" value="string" style="shape=partialRectangle;connectable=0;fillColor=none;top=0;left=0;bottom=0;right=0;align=left;spacingLeft=2;overflow=hidden;fontSize=11;" parent="DbBFbB_svKLP9gITF9bb-44" vertex="1">
          <mxGeometry width="36" height="22" as="geometry">
            <mxRectangle width="36" height="22" as="alternateBounds" />
          </mxGeometry>
        </mxCell>
        <mxCell id="DbBFbB_svKLP9gITF9bb-46" value="Geo_Place_Name" style="shape=partialRectangle;connectable=0;fillColor=none;top=0;left=0;bottom=0;right=0;align=left;spacingLeft=2;overflow=hidden;fontSize=11;" parent="DbBFbB_svKLP9gITF9bb-44" vertex="1">
          <mxGeometry x="36" width="101" height="22" as="geometry">
            <mxRectangle width="101" height="22" as="alternateBounds" />
          </mxGeometry>
        </mxCell>
        <mxCell id="DbBFbB_svKLP9gITF9bb-47" value="" style="shape=partialRectangle;connectable=0;fillColor=none;top=0;left=0;bottom=0;right=0;align=left;spacingLeft=2;overflow=hidden;fontSize=11;" parent="DbBFbB_svKLP9gITF9bb-44" vertex="1">
          <mxGeometry x="137" width="20" height="22" as="geometry">
            <mxRectangle width="20" height="22" as="alternateBounds" />
          </mxGeometry>
        </mxCell>
        <mxCell id="DbBFbB_svKLP9gITF9bb-48" value="Indicator_Dimension" style="shape=table;startSize=25;container=1;collapsible=0;childLayout=tableLayout;fixedRows=1;rowLines=1;fontStyle=1;align=center;resizeLast=1;fillColor=#a0522d;strokeColor=#6D1F00;fontColor=#ffffff;" parent="1" vertex="1">
          <mxGeometry x="576" y="382" width="148" height="135" as="geometry" />
        </mxCell>
        <mxCell id="DbBFbB_svKLP9gITF9bb-49" style="shape=tableRow;horizontal=0;startSize=0;swimlaneHead=0;swimlaneBody=0;fillColor=none;collapsible=0;dropTarget=0;points=[[0,0.5],[1,0.5]];portConstraint=eastwest;top=0;left=0;right=0;bottom=0;" parent="DbBFbB_svKLP9gITF9bb-48" vertex="1">
          <mxGeometry y="25" width="148" height="22" as="geometry" />
        </mxCell>
        <mxCell id="DbBFbB_svKLP9gITF9bb-50" value="int" style="shape=partialRectangle;connectable=0;fillColor=none;top=0;left=0;bottom=0;right=0;align=left;spacingLeft=2;overflow=hidden;fontSize=11;" parent="DbBFbB_svKLP9gITF9bb-49" vertex="1">
          <mxGeometry width="36" height="22" as="geometry">
            <mxRectangle width="36" height="22" as="alternateBounds" />
          </mxGeometry>
        </mxCell>
        <mxCell id="DbBFbB_svKLP9gITF9bb-51" value="Indicator_Key" style="shape=partialRectangle;connectable=0;fillColor=none;top=0;left=0;bottom=0;right=0;align=left;spacingLeft=2;overflow=hidden;fontSize=11;" parent="DbBFbB_svKLP9gITF9bb-49" vertex="1">
          <mxGeometry x="36" width="92" height="22" as="geometry">
            <mxRectangle width="92" height="22" as="alternateBounds" />
          </mxGeometry>
        </mxCell>
        <mxCell id="DbBFbB_svKLP9gITF9bb-52" value="PK" style="shape=partialRectangle;connectable=0;fillColor=none;top=0;left=0;bottom=0;right=0;align=left;spacingLeft=2;overflow=hidden;fontSize=11;" parent="DbBFbB_svKLP9gITF9bb-49" vertex="1">
          <mxGeometry x="128" width="20" height="22" as="geometry">
            <mxRectangle width="20" height="22" as="alternateBounds" />
          </mxGeometry>
        </mxCell>
        <mxCell id="DbBFbB_svKLP9gITF9bb-53" style="shape=tableRow;horizontal=0;startSize=0;swimlaneHead=0;swimlaneBody=0;fillColor=none;collapsible=0;dropTarget=0;points=[[0,0.5],[1,0.5]];portConstraint=eastwest;top=0;left=0;right=0;bottom=0;" parent="DbBFbB_svKLP9gITF9bb-48" vertex="1">
          <mxGeometry y="47" width="148" height="22" as="geometry" />
        </mxCell>
        <mxCell id="DbBFbB_svKLP9gITF9bb-54" value="int" style="shape=partialRectangle;connectable=0;fillColor=none;top=0;left=0;bottom=0;right=0;align=left;spacingLeft=2;overflow=hidden;fontSize=11;" parent="DbBFbB_svKLP9gITF9bb-53" vertex="1">
          <mxGeometry width="36" height="22" as="geometry">
            <mxRectangle width="36" height="22" as="alternateBounds" />
          </mxGeometry>
        </mxCell>
        <mxCell id="DbBFbB_svKLP9gITF9bb-55" value="Indicator_ID" style="shape=partialRectangle;connectable=0;fillColor=none;top=0;left=0;bottom=0;right=0;align=left;spacingLeft=2;overflow=hidden;fontSize=11;" parent="DbBFbB_svKLP9gITF9bb-53" vertex="1">
          <mxGeometry x="36" width="92" height="22" as="geometry">
            <mxRectangle width="92" height="22" as="alternateBounds" />
          </mxGeometry>
        </mxCell>
        <mxCell id="DbBFbB_svKLP9gITF9bb-56" value="" style="shape=partialRectangle;connectable=0;fillColor=none;top=0;left=0;bottom=0;right=0;align=left;spacingLeft=2;overflow=hidden;fontSize=11;" parent="DbBFbB_svKLP9gITF9bb-53" vertex="1">
          <mxGeometry x="128" width="20" height="22" as="geometry">
            <mxRectangle width="20" height="22" as="alternateBounds" />
          </mxGeometry>
        </mxCell>
        <mxCell id="DbBFbB_svKLP9gITF9bb-57" style="shape=tableRow;horizontal=0;startSize=0;swimlaneHead=0;swimlaneBody=0;fillColor=none;collapsible=0;dropTarget=0;points=[[0,0.5],[1,0.5]];portConstraint=eastwest;top=0;left=0;right=0;bottom=0;" parent="DbBFbB_svKLP9gITF9bb-48" vertex="1">
          <mxGeometry y="69" width="148" height="22" as="geometry" />
        </mxCell>
        <mxCell id="DbBFbB_svKLP9gITF9bb-58" value="string" style="shape=partialRectangle;connectable=0;fillColor=none;top=0;left=0;bottom=0;right=0;align=left;spacingLeft=2;overflow=hidden;fontSize=11;" parent="DbBFbB_svKLP9gITF9bb-57" vertex="1">
          <mxGeometry width="36" height="22" as="geometry">
            <mxRectangle width="36" height="22" as="alternateBounds" />
          </mxGeometry>
        </mxCell>
        <mxCell id="DbBFbB_svKLP9gITF9bb-59" value="Name" style="shape=partialRectangle;connectable=0;fillColor=none;top=0;left=0;bottom=0;right=0;align=left;spacingLeft=2;overflow=hidden;fontSize=11;" parent="DbBFbB_svKLP9gITF9bb-57" vertex="1">
          <mxGeometry x="36" width="92" height="22" as="geometry">
            <mxRectangle width="92" height="22" as="alternateBounds" />
          </mxGeometry>
        </mxCell>
        <mxCell id="DbBFbB_svKLP9gITF9bb-60" value="" style="shape=partialRectangle;connectable=0;fillColor=none;top=0;left=0;bottom=0;right=0;align=left;spacingLeft=2;overflow=hidden;fontSize=11;" parent="DbBFbB_svKLP9gITF9bb-57" vertex="1">
          <mxGeometry x="128" width="20" height="22" as="geometry">
            <mxRectangle width="20" height="22" as="alternateBounds" />
          </mxGeometry>
        </mxCell>
        <mxCell id="DbBFbB_svKLP9gITF9bb-61" style="shape=tableRow;horizontal=0;startSize=0;swimlaneHead=0;swimlaneBody=0;fillColor=none;collapsible=0;dropTarget=0;points=[[0,0.5],[1,0.5]];portConstraint=eastwest;top=0;left=0;right=0;bottom=0;" parent="DbBFbB_svKLP9gITF9bb-48" vertex="1">
          <mxGeometry y="91" width="148" height="22" as="geometry" />
        </mxCell>
        <mxCell id="DbBFbB_svKLP9gITF9bb-62" value="string" style="shape=partialRectangle;connectable=0;fillColor=none;top=0;left=0;bottom=0;right=0;align=left;spacingLeft=2;overflow=hidden;fontSize=11;" parent="DbBFbB_svKLP9gITF9bb-61" vertex="1">
          <mxGeometry width="36" height="22" as="geometry">
            <mxRectangle width="36" height="22" as="alternateBounds" />
          </mxGeometry>
        </mxCell>
        <mxCell id="DbBFbB_svKLP9gITF9bb-63" value="Measure" style="shape=partialRectangle;connectable=0;fillColor=none;top=0;left=0;bottom=0;right=0;align=left;spacingLeft=2;overflow=hidden;fontSize=11;" parent="DbBFbB_svKLP9gITF9bb-61" vertex="1">
          <mxGeometry x="36" width="92" height="22" as="geometry">
            <mxRectangle width="92" height="22" as="alternateBounds" />
          </mxGeometry>
        </mxCell>
        <mxCell id="DbBFbB_svKLP9gITF9bb-64" value="" style="shape=partialRectangle;connectable=0;fillColor=none;top=0;left=0;bottom=0;right=0;align=left;spacingLeft=2;overflow=hidden;fontSize=11;" parent="DbBFbB_svKLP9gITF9bb-61" vertex="1">
          <mxGeometry x="128" width="20" height="22" as="geometry">
            <mxRectangle width="20" height="22" as="alternateBounds" />
          </mxGeometry>
        </mxCell>
        <mxCell id="DbBFbB_svKLP9gITF9bb-65" style="shape=tableRow;horizontal=0;startSize=0;swimlaneHead=0;swimlaneBody=0;fillColor=none;collapsible=0;dropTarget=0;points=[[0,0.5],[1,0.5]];portConstraint=eastwest;top=0;left=0;right=0;bottom=0;" parent="DbBFbB_svKLP9gITF9bb-48" vertex="1">
          <mxGeometry y="113" width="148" height="22" as="geometry" />
        </mxCell>
        <mxCell id="DbBFbB_svKLP9gITF9bb-66" value="string" style="shape=partialRectangle;connectable=0;fillColor=none;top=0;left=0;bottom=0;right=0;align=left;spacingLeft=2;overflow=hidden;fontSize=11;" parent="DbBFbB_svKLP9gITF9bb-65" vertex="1">
          <mxGeometry width="36" height="22" as="geometry">
            <mxRectangle width="36" height="22" as="alternateBounds" />
          </mxGeometry>
        </mxCell>
        <mxCell id="DbBFbB_svKLP9gITF9bb-67" value="Measure_Info" style="shape=partialRectangle;connectable=0;fillColor=none;top=0;left=0;bottom=0;right=0;align=left;spacingLeft=2;overflow=hidden;fontSize=11;" parent="DbBFbB_svKLP9gITF9bb-65" vertex="1">
          <mxGeometry x="36" width="92" height="22" as="geometry">
            <mxRectangle width="92" height="22" as="alternateBounds" />
          </mxGeometry>
        </mxCell>
        <mxCell id="DbBFbB_svKLP9gITF9bb-68" value="" style="shape=partialRectangle;connectable=0;fillColor=none;top=0;left=0;bottom=0;right=0;align=left;spacingLeft=2;overflow=hidden;fontSize=11;" parent="DbBFbB_svKLP9gITF9bb-65" vertex="1">
          <mxGeometry x="128" width="20" height="22" as="geometry">
            <mxRectangle width="20" height="22" as="alternateBounds" />
          </mxGeometry>
        </mxCell>
        <mxCell id="DbBFbB_svKLP9gITF9bb-69" value="has" style="startArrow=ERmandOne;startSize=10;;endArrow=ERmany;endSize=10;;exitX=0;exitY=0.76;entryX=0.5;entryY=0;rounded=0;edgeStyle=orthogonalEdgeStyle;" parent="1" source="DbBFbB_svKLP9gITF9bb-1" target="DbBFbB_svKLP9gITF9bb-18" edge="1">
          <mxGeometry relative="1" as="geometry" />
        </mxCell>
        <mxCell id="DbBFbB_svKLP9gITF9bb-70" value="measures" style="startArrow=ERmandOne;startSize=10;;endArrow=ERmany;endSize=10;;exitX=0.5;exitY=1;entryX=0.5;entryY=0;rounded=0;edgeStyle=orthogonalEdgeStyle;" parent="1" source="DbBFbB_svKLP9gITF9bb-1" target="DbBFbB_svKLP9gITF9bb-31" edge="1">
          <mxGeometry relative="1" as="geometry" />
        </mxCell>
        <mxCell id="DbBFbB_svKLP9gITF9bb-71" value="is associated with" style="startArrow=ERmandOne;startSize=10;;endArrow=ERmany;endSize=10;;exitX=1;exitY=0.75;entryX=0.5;entryY=0;rounded=0;edgeStyle=orthogonalEdgeStyle;" parent="1" source="DbBFbB_svKLP9gITF9bb-1" target="DbBFbB_svKLP9gITF9bb-48" edge="1">
          <mxGeometry relative="1" as="geometry" />
        </mxCell>
        <mxCell id="DbBFbB_svKLP9gITF9bb-72" value="&lt;font style=&quot;font-size: 22px;&quot;&gt;Star-Schema&lt;/font&gt;" style="rounded=0;whiteSpace=wrap;html=1;fillColor=none;strokeColor=none;gradientColor=none;align=left;verticalAlign=top;overflow=hidden;shape=process;backgroundOutline=1;" parent="1" vertex="1">
          <mxGeometry x="320" y="110" width="200" height="60" as="geometry" />
        </mxCell>
      </root>
    </mxGraphModel>
  </diagram>
</mxfile>
